<?xml version="1.0" encoding="utf-8"?>
<!-- Generator: Adobe Illustrator 24.0.0, SVG Export Plug-In . SVG Version: 6.00 Build 0)  -->
<svg version="1.1" id="Layer_1" xmlns="http://www.w3.org/2000/svg" xmlns:xlink="http://www.w3.org/1999/xlink" x="0px" y="0px"
	 viewBox="0 0 189 50" style="enable-background:new 0 0 189 50;" xml:space="preserve">
<style type="text/css">
	.st0{fill:#CCD626;}
	.st1{fill:#31303E;}
</style>
<path class="st0" d="M189,29.6h-16.8V12.8H189V29.6z M175.5,26.3h10.2V16.1h-10.2V26.3z"/>
<g>
	<path class="st1" d="M0,15.3h7.4c4.5,0,7.8,3.4,7.8,7.7c0,4.3-3.3,7.7-7.8,7.7H4v6.2H0L0,15.3z M4,19V27h3.1c2.4,0,4-1.8,4-4
		c0-2.2-1.6-4-4-4H4z"/>
	<path class="st1" d="M17.1,28.2c0-5,4-9,9-9c5,0,9,4,9,9c0,5-4,9-9,9C21.1,37.2,17.1,33.2,17.1,28.2z M31.1,28.2
		c0-2.9-2.2-5.3-5-5.3c-2.9,0-5,2.4-5,5.3c0,2.9,2.2,5.2,5,5.2C28.9,33.5,31.1,31.1,31.1,28.2z"/>
	<path class="st1" d="M40,12.8c1.6,0,2.5,1,2.5,2.5c0,1.5-0.9,2.5-2.5,2.5c-1.6,0-2.5-1-2.5-2.5C37.4,13.8,38.4,12.8,40,12.8
		L40,12.8z M38,19.6h4v17.3h-4V19.6z"/>
	<path class="st1" d="M45.5,19.6h4v2.1c1.1-1.5,3-2.5,5.2-2.5c4.3,0,6.9,2.8,6.9,7.4v10.3h-4V27c0-2.7-1.3-4.4-3.9-4.4
		c-2.3,0-4,1.7-4,4.7v9.5h-4V19.6z"/>
	<path class="st1" d="M63.6,19.6h3V17l4-2.7v5.4h3.5v3.6h-3.5v6.5c0,3,0.4,3.5,3.5,3.5v3.7h-0.6c-5.3,0-7-1.7-7-7.2v-6.5h-3V19.6z"
		/>
	<path class="st1" d="M76.7,26.1c0-6.4,4.8-11.1,11.1-11.1c4,0,7.6,2.1,9.5,5.3l-3.5,2.2c-1.2-2.2-3.2-3.6-5.9-3.6
		c-4.1,0-7.1,3.1-7.1,7.1c0,3.9,3,7.1,7,7.1c3,0,5.1-1.7,6.2-4l3.7,1.9c-1.9,3.7-5.5,6.2-9.8,6.2C81.1,37.2,76.7,32.2,76.7,26.1z"/>
	<path class="st1" d="M99.8,28.2c0-5.7,4.2-9,8.6-9c2.3,0,4.3,0.9,5.6,2.4v-2.1h4v17.3h-4v-2.2c-1.3,1.6-3.3,2.6-5.6,2.6
		C104.1,37.2,99.8,33.9,99.8,28.2L99.8,28.2z M114.1,28.2c0-2.9-2.2-5.3-5.2-5.3c-3,0-5.2,2.3-5.2,5.3c0,3,2.3,5.4,5.2,5.4
		C111.9,33.6,114.1,31.2,114.1,28.2z"/>
	<path class="st1" d="M121.5,19.6h4v2.6c0.8-1.7,2.2-2.6,4.4-2.6c1.2,0,2.3,0.3,3.1,0.7l-1.5,3.8c-0.6-0.4-1.3-0.7-2.4-0.7
		c-2.3,0-3.5,1.2-3.5,4.2v9.2h-4L121.5,19.6z"/>
	<path class="st1" d="M135.4,19.6h4v2.6c0.8-1.7,2.2-2.6,4.4-2.6c1.2,0,2.3,0.3,3.1,0.7l-1.5,3.8c-0.6-0.4-1.3-0.7-2.4-0.7
		c-2.3,0-3.5,1.2-3.5,4.2v9.2h-4L135.4,19.6z"/>
	<path class="st1" d="M148.2,28.3c0-5.1,3.9-9,9-9c5.1,0,8.9,3.8,8.9,8.9v1.5H152c0.5,2.4,2.5,4.1,5.3,4.1c2.2,0,4-1.2,4.8-3.1
		l3.3,1.9c-1.5,2.8-4.2,4.7-8.1,4.7C151.9,37.2,148.2,33.3,148.2,28.3L148.2,28.3z M152.2,26.3h9.8c-0.6-2.3-2.4-3.5-4.8-3.5
		C154.8,22.7,152.9,24.2,152.2,26.3L152.2,26.3z M159.3,12.8h3.7l-4.4,5h-2.7L159.3,12.8z"/>
</g>
</svg>
